<?xml version="1.0" standalone="no"?><!DOCTYPE svg PUBLIC "-//W3C//DTD SVG 1.1//EN" "http://www.w3.org/Graphics/SVG/1.1/DTD/svg11.dtd"><svg t="1602243959559" class="icon" viewBox="0 0 1024 1024" version="1.1" xmlns="http://www.w3.org/2000/svg" p-id="770" xmlns:xlink="http://www.w3.org/1999/xlink" width="200" height="200"><defs><style type="text/css"></style></defs><path d="M511.6 883.2c-205.2 0-372.1-166.7-372.1-371.5 0-204.9 166.9-371.5 372.1-371.5 205.2 0 372.1 166.7 372.1 371.5 0 204.9-166.9 371.5-372.1 371.5m0-817.3C265.3 65.9 65 265.9 65 511.7s200.3 445.8 446.6 445.8c246.2 0 446.6-200 446.6-445.8-0.1-245.8-200.4-445.8-446.6-445.8" p-id="771"></path><path d="M636.1 415.4L459.6 608l-72.2-80.8c-13.7-15.3-37.2-16.6-52.5-3-15.3 13.7-16.7 37.2-3 52.5l99.7 111.5c7 7.8 17 12.3 27.5 12.4h0.2c10.4 0 20.4-4.4 27.5-12.1L691 465.6c13.9-15.1 12.8-38.6-2.3-52.5-15.2-13.8-38.7-12.8-52.6 2.3" p-id="772"></path></svg>